name Walk5_EMG.mot
datacolumns 17
datarows 16
range 1.82100000 1.83600000
endheader
                time	            vasmed_r	            vaslat_r	            recfem_r	               gra_r	               sar_r	            tibant_r	           perlong_r	            addmag_r	           semimem_r	          bicfemlh_r	            gasmed_r	            gaslat_r	               sol_r	               tfl_r	              gmed_r	              gmax_r	
          1.82100000	          0.02934031	          0.00000000	          0.00000000	          0.00000000	          0.03205562	          0.00000000	          0.00000000	          0.00000000	          0.00000000	          0.00000000	          0.00000000	          0.00000000	          0.00000000	          0.00000000	          0.00000000	          0.00000000	
          1.82200000	          0.02934566	          0.00000000	          0.00000000	          0.00000000	          0.03206186	          0.00000000	          0.00000000	          0.00000000	          0.00000000	          0.00000000	          0.00000000	          0.00000000	          0.00000000	          0.00000000	          0.00000000	          0.00000000	
          1.82300000	          0.02936801	          0.00000000	          0.00000000	          0.00000000	          0.03208750	          0.00000000	          0.00000000	          0.00000000	          0.00000000	          0.00000000	          0.00000000	          0.00000000	          0.00000000	          0.00000000	          0.00000000	          0.00000000	
          1.82400000	          0.02942903	          0.00000000	          0.00000000	          0.00000000	          0.03215758	          0.00000000	          0.00000000	          0.00000000	          0.00000000	          0.00000000	          0.00000000	          0.00000000	          0.00000000	          0.00000000	          0.00000000	          0.00000000	
          1.82500000	          0.02955610	          0.00000000	          0.00000000	          0.00000000	          0.03230497	          0.00000000	          0.00000000	          0.00000000	          0.00000000	          0.00000000	          0.00000000	          0.00000000	          0.00000000	          0.00000000	          0.00000000	          0.00000000	
          1.82600000	          0.02977840	          0.00000000	          0.00000000	          0.00000000	          0.03256572	          0.00000000	          0.00000000	          0.00000000	          0.00000000	          0.00000000	          0.00000000	          0.00000000	          0.00012903	          0.00000000	          0.00000000	          0.00000000	
          1.82700000	          0.03012747	          0.00000000	          0.00000000	          0.00000000	          0.03297523	          0.00000000	          0.00000000	          0.00000000	          0.00000000	          0.00000000	          0.00000000	          0.00000000	          0.00045982	          0.00000000	          0.00000000	          0.00000000	
          1.82800000	          0.03064156	          0.00000000	          0.00000000	          0.00000000	          0.03356550	          0.00000000	          0.00000000	          0.00000000	          0.00000000	          0.00000000	          0.00000000	          0.00000000	          0.00096231	          0.00000000	          0.00000000	          0.00000000	
          1.82900000	          0.03136926	          0.00000000	          0.00000000	          0.00000000	          0.03436362	          0.00000000	          0.00000000	          0.00000000	          0.00000000	          0.00001086	          0.00000000	          0.00000000	          0.00168193	          0.00000000	          0.00000000	          0.00000000	
          1.83000000	          0.03236791	          0.00000000	          0.00000000	          0.00000000	          0.03539179	          0.00000000	          0.00000000	          0.00000000	          0.00000000	          0.00014991	          0.00000000	          0.00000000	          0.00266656	          0.00000000	          0.00000000	          0.00000000	
          1.83100000	          0.03369844	          0.00000000	          0.00000000	          0.00000000	          0.03666817	          0.00000000	          0.00000000	          0.00000000	          0.00000000	          0.00033599	          0.00000000	          0.00000000	          0.00396567	          0.00000000	          0.00000000	          0.00000000	
          1.83200000	          0.03541998	          0.00045813	          0.00062099	          0.00006685	          0.03820766	          0.00012965	          0.00020113	          0.00028850	          0.00016048	          0.00057763	          0.00015437	          0.00032763	          0.00562823	          0.00011872	          0.00072854	          0.00039118	
          1.83300000	          0.03758577	          0.00160559	          0.00175007	          0.00025742	          0.04002258	          0.00043744	          0.00096628	          0.00070282	          0.00108336	          0.00088283	          0.00132425	          0.00140512	          0.00770051	          0.00061825	          0.00223122	          0.00119375	
          1.83400000	          0.04024031	          0.00298301	          0.00306845	          0.00048789	          0.04212312	          0.00080678	          0.00191665	          0.00118043	          0.00223388	          0.00125928	          0.00278284	          0.00271310	          0.01022474	          0.00124148	          0.00403193	          0.00214705	
          1.83500000	          0.04341806	          0.00460072	          0.00457880	          0.00076041	          0.04451782	          0.00124114	          0.00308375	          0.00172241	          0.00363408	          0.00171403	          0.00456311	          0.00427093	          0.01323736	          0.00200616	          0.00614666	          0.00325831	
          1.83600000	          0.04714596	          0.00646533	          0.00628256	          0.00107657	          0.04721534	          0.00174292	          0.00449942	          0.00233031	          0.00530277	          0.00225305	          0.00669916	          0.00610289	          0.01676627	          0.00292976	          0.00858602	          0.00453489	
